<svg xmlns="http://www.w3.org/2000/svg" width="30" height="30" viewBox="0 0 30 30">
  <g id="Group_11061" data-name="Group 11061" transform="translate(-1326 -14)">
    <g id="Group_11002" data-name="Group 11002" transform="translate(7046 16427)">
      <rect id="Rectangle_4382" data-name="Rectangle 4382" width="24" height="24" transform="translate(-5720 -16407)" fill="#fff"/>
      <path id="Icon_material-notifications-none" data-name="Icon material-notifications-none" d="M14.664,24.869A2.172,2.172,0,0,0,16.83,22.7H12.5A2.172,2.172,0,0,0,14.664,24.869Zm6.5-6.5V12.956c0-3.325-1.765-6.108-4.874-6.845V5.375a1.625,1.625,0,1,0-3.249,0v.736c-3.1.736-4.874,3.509-4.874,6.845v5.415L6,20.537V21.62H23.329V20.537ZM19,19.454H10.332v-6.5c0-2.686,1.635-4.874,4.332-4.874S19,10.27,19,12.956Z" transform="translate(-5722.664 -16409.25)" fill="#585858" stroke="#fff" stroke-width="0.5"/>
    </g>
    <g id="Group_11029" data-name="Group 11029" transform="translate(-18 -5)">
      <rect id="Rectangle_4420" data-name="Rectangle 4420" width="17" height="17" rx="8.5" transform="translate(1357 19)" fill="#fe4d4f"/>
      <text id="_1" data-name="1" transform="translate(1365 32)" fill="#fff" font-size="12" font-family="Manrope-Medium, Manrope" font-weight="500"><tspan x="-2" y="0">1</tspan></text>
    </g>
  </g>
</svg>
