<svg id="Component_401_3" data-name="Component 401 – 3" xmlns="http://www.w3.org/2000/svg" width="40" height="40" viewBox="0 0 40 40">
  <g id="Ellipse_481" data-name="Ellipse 481" fill="#fff" stroke="#b2b2b2" stroke-width="1">
    <circle cx="20" cy="20" r="20" stroke="none"/>
    <circle cx="20" cy="20" r="19.5" fill="none"/>
  </g>
  <path id="Icon_ionic-md-share" data-name="Icon ionic-md-share" d="M19.434,17.122a2.722,2.722,0,0,0-1.948.746L10.344,13.74a3.345,3.345,0,0,0,.1-.7,3.344,3.344,0,0,0-.1-.7l7.043-4.079a2.989,2.989,0,1,0-.949-2.189,3.325,3.325,0,0,0,.1.7L9.495,10.854a3.006,3.006,0,0,0-2.048-.8A2.957,2.957,0,0,0,4.5,13.043a3.007,3.007,0,0,0,5.045,2.189l7.093,4.129a2.5,2.5,0,0,0-.1.647,2.9,2.9,0,1,0,2.9-2.885Z" transform="translate(6.5 6.906)" fill="#888"/>
</svg>
